<svg width="1778" height="569" viewBox="0 0 1778 569" fill="none" xmlns="http://www.w3.org/2000/svg">
<mask id="mask0_4689_2700" style="mask-type:alpha" maskUnits="userSpaceOnUse" x="0" y="0" width="1778" height="569">
<rect width="1778" height="569" fill="#D9D9D9"/>
</mask>
<g mask="url(#mask0_4689_2700)">
<rect y="-67.4961" width="1778" height="636" fill="url(#paint0_linear_4689_2700)"/>
<path d="M2080.08 733.463L1362.12 416.512C1347.52 409.87 1331.02 408.534 1315.52 412.738C1300.03 416.942 1286.5 426.419 1277.31 439.515L929.156 925.73C858.473 1024.36 755.194 1095.22 637.33 1125.95C519.467 1156.68 394.5 1145.33 284.225 1093.88L-656.107 654.933C-728.265 620.802 -792.041 571.416 -842.972 510.229C-893.903 449.043 -930.761 377.533 -950.965 300.705C-971.168 223.876 -974.231 143.583 -959.938 65.4436C-945.646 -12.6957 -914.342 -86.795 -868.219 -151.669L-844.718 -184.318C-835.39 -197.547 -821.638 -207.056 -805.913 -211.149C-790.189 -215.242 -773.513 -213.654 -758.862 -206.666L379.071 325.277C393.762 332.356 410.515 333.993 426.316 329.895C442.117 325.796 455.93 316.231 465.269 302.919L825.004 -199.616C890.735 -291.26 986.377 -357.466 1095.67 -386.973C1204.96 -416.481 1321.15 -407.468 1424.48 -361.47L2516.88 121.223C2526.15 125.293 2534.4 131.358 2541.04 138.979C2547.67 146.6 2552.52 155.588 2555.23 165.296C2557.94 175.004 2558.46 185.191 2556.73 195.121C2555.01 205.051 2551.09 214.478 2545.25 222.723L2203.72 699.904C2190.27 718.924 2170.55 732.685 2147.98 738.811C2125.41 744.938 2101.4 743.047 2080.08 733.463Z" fill="#06CBA3"/>
<path d="M2069.71 412.771L1296.38 279.008C1280.6 276.099 1264.27 278.794 1250.25 286.624C1236.23 294.454 1225.4 306.923 1219.66 321.854L999.528 877.876C954.818 990.684 871.759 1084.43 764.838 1142.78C657.916 1201.12 533.917 1220.35 414.468 1197.12L-604.144 998.805C-682.418 983.153 -756.25 950.67 -820.476 903.629C-884.702 856.588 -937.771 796.126 -975.969 726.471C-1014.17 656.816 -1036.57 579.652 -1041.61 500.376C-1046.66 421.101 -1034.22 341.628 -1005.17 267.52L-990.268 230.154C-984.42 215.06 -973.378 202.506 -959.112 194.729C-944.845 186.951 -928.281 184.457 -912.374 187.69L320.472 428.409C336.439 431.723 353.09 429.257 367.43 421.456C381.769 413.655 392.856 401.031 398.696 385.854L626.11 -188.805C667.706 -293.634 744.481 -381.019 843.38 -436.1C942.279 -491.181 1057.2 -510.558 1168.59 -490.936L2345.33 -286.983C2355.32 -285.278 2364.79 -281.391 2373.07 -275.601C2381.35 -269.811 2388.23 -262.264 2393.21 -253.502C2398.2 -244.739 2401.16 -234.979 2401.89 -224.927C2402.62 -214.874 2401.1 -204.779 2397.43 -195.367L2181.55 350.286C2173.09 371.998 2157.3 390.121 2136.88 401.528C2116.46 412.935 2092.7 416.912 2069.71 412.771Z" fill="#11AD8D"/>
</g>
<defs>
<linearGradient id="paint0_linear_4689_2700" x1="889" y1="568.504" x2="889" y2="-67.4961" gradientUnits="userSpaceOnUse">
<stop stop-color="#232D3E"/>
<stop offset="1" stop-color="#4C6186"/>
</linearGradient>
</defs>
</svg>
